<mxfile host="app.diagrams.net" modified="2024-03-11T08:33:47.815Z" agent="Mozilla/5.0 (Windows NT 10.0; Win64; x64) AppleWebKit/537.36 (KHTML, like Gecko) Chrome/122.0.0.0 Safari/537.36" etag="987YrEYyHt8HQ4yn3avA" version="24.0.2" type="device" pages="2">
  <diagram name="domain" id="5f0bae14-7c28-e335-631c-24af17079c00">
    <mxGraphModel dx="1434" dy="746" grid="1" gridSize="10" guides="1" tooltips="1" connect="1" arrows="1" fold="1" page="1" pageScale="1" pageWidth="1100" pageHeight="850" background="none" math="0" shadow="0">
      <root>
        <mxCell id="0" />
        <mxCell id="1" parent="0" />
        <mxCell id="1IV6oj0AkLLf4Vp_rQSQ-2" value="Player" style="swimlane;fontStyle=0;childLayout=stackLayout;horizontal=1;startSize=30;horizontalStack=0;resizeParent=1;resizeParentMax=0;resizeLast=0;collapsible=1;marginBottom=0;whiteSpace=wrap;html=1;" parent="1" vertex="1">
          <mxGeometry x="130" y="100" width="140" height="120" as="geometry" />
        </mxCell>
        <mxCell id="1IV6oj0AkLLf4Vp_rQSQ-78" value="id" style="text;strokeColor=none;fillColor=none;align=left;verticalAlign=middle;spacingLeft=4;spacingRight=4;overflow=hidden;points=[[0,0.5],[1,0.5]];portConstraint=eastwest;rotatable=0;whiteSpace=wrap;html=1;" parent="1IV6oj0AkLLf4Vp_rQSQ-2" vertex="1">
          <mxGeometry y="30" width="140" height="30" as="geometry" />
        </mxCell>
        <mxCell id="1IV6oj0AkLLf4Vp_rQSQ-3" value="name" style="text;strokeColor=none;fillColor=none;align=left;verticalAlign=middle;spacingLeft=4;spacingRight=4;overflow=hidden;points=[[0,0.5],[1,0.5]];portConstraint=eastwest;rotatable=0;whiteSpace=wrap;html=1;" parent="1IV6oj0AkLLf4Vp_rQSQ-2" vertex="1">
          <mxGeometry y="60" width="140" height="30" as="geometry" />
        </mxCell>
        <mxCell id="1IV6oj0AkLLf4Vp_rQSQ-5" value="items" style="text;strokeColor=none;fillColor=none;align=left;verticalAlign=middle;spacingLeft=4;spacingRight=4;overflow=hidden;points=[[0,0.5],[1,0.5]];portConstraint=eastwest;rotatable=0;whiteSpace=wrap;html=1;" parent="1IV6oj0AkLLf4Vp_rQSQ-2" vertex="1">
          <mxGeometry y="90" width="140" height="30" as="geometry" />
        </mxCell>
        <object label="Item" value="" id="1IV6oj0AkLLf4Vp_rQSQ-6">
          <mxCell style="swimlane;fontStyle=0;childLayout=stackLayout;horizontal=1;startSize=30;horizontalStack=0;resizeParent=1;resizeParentMax=0;resizeLast=0;collapsible=1;marginBottom=0;whiteSpace=wrap;html=1;" parent="1" vertex="1">
            <mxGeometry x="380" y="100" width="140" height="183" as="geometry" />
          </mxCell>
        </object>
        <mxCell id="1IV6oj0AkLLf4Vp_rQSQ-15" value="id" style="text;strokeColor=none;fillColor=none;align=left;verticalAlign=middle;spacingLeft=4;spacingRight=4;overflow=hidden;points=[[0,0.5],[1,0.5]];portConstraint=eastwest;rotatable=0;whiteSpace=wrap;html=1;" parent="1IV6oj0AkLLf4Vp_rQSQ-6" vertex="1">
          <mxGeometry y="30" width="140" height="30" as="geometry" />
        </mxCell>
        <mxCell id="SiTH4Ymlxf66pRt1LKJP-2" value="code" style="text;strokeColor=none;fillColor=none;align=left;verticalAlign=middle;spacingLeft=4;spacingRight=4;overflow=hidden;points=[[0,0.5],[1,0.5]];portConstraint=eastwest;rotatable=0;whiteSpace=wrap;html=1;" parent="1IV6oj0AkLLf4Vp_rQSQ-6" vertex="1">
          <mxGeometry y="60" width="140" height="30" as="geometry" />
        </mxCell>
        <mxCell id="1IV6oj0AkLLf4Vp_rQSQ-7" value="name" style="text;strokeColor=none;fillColor=none;align=left;verticalAlign=middle;spacingLeft=4;spacingRight=4;overflow=hidden;points=[[0,0.5],[1,0.5]];portConstraint=eastwest;rotatable=0;whiteSpace=wrap;html=1;" parent="1IV6oj0AkLLf4Vp_rQSQ-6" vertex="1">
          <mxGeometry y="90" width="140" height="30" as="geometry" />
        </mxCell>
        <mxCell id="1IV6oj0AkLLf4Vp_rQSQ-8" value="description" style="text;strokeColor=none;fillColor=none;align=left;verticalAlign=middle;spacingLeft=4;spacingRight=4;overflow=hidden;points=[[0,0.5],[1,0.5]];portConstraint=eastwest;rotatable=0;whiteSpace=wrap;html=1;" parent="1IV6oj0AkLLf4Vp_rQSQ-6" vertex="1">
          <mxGeometry y="120" width="140" height="30" as="geometry" />
        </mxCell>
        <object label="state" id="1IV6oj0AkLLf4Vp_rQSQ-9">
          <mxCell style="text;strokeColor=none;fillColor=none;align=left;verticalAlign=middle;spacingLeft=4;spacingRight=4;overflow=hidden;points=[[0,0.5],[1,0.5]];portConstraint=eastwest;rotatable=0;whiteSpace=wrap;html=1;" parent="1IV6oj0AkLLf4Vp_rQSQ-6" vertex="1">
            <mxGeometry y="150" width="140" height="33" as="geometry" />
          </mxCell>
        </object>
        <mxCell id="1IV6oj0AkLLf4Vp_rQSQ-14" value="" style="endArrow=none;html=1;rounded=0;exitX=1;exitY=0.5;exitDx=0;exitDy=0;entryX=0;entryY=0.5;entryDx=0;entryDy=0;edgeStyle=orthogonalEdgeStyle;" parent="1" source="1IV6oj0AkLLf4Vp_rQSQ-5" target="1IV6oj0AkLLf4Vp_rQSQ-15" edge="1">
          <mxGeometry width="50" height="50" relative="1" as="geometry">
            <mxPoint x="390" y="210" as="sourcePoint" />
            <mxPoint x="440" y="160" as="targetPoint" />
          </mxGeometry>
        </mxCell>
        <mxCell id="1IV6oj0AkLLf4Vp_rQSQ-16" value="1:n" style="edgeLabel;html=1;align=center;verticalAlign=middle;resizable=0;points=[];" parent="1IV6oj0AkLLf4Vp_rQSQ-14" vertex="1" connectable="0">
          <mxGeometry x="0.0153" y="2" relative="1" as="geometry">
            <mxPoint as="offset" />
          </mxGeometry>
        </mxCell>
        <object label="Position" value="" id="1IV6oj0AkLLf4Vp_rQSQ-17">
          <mxCell style="swimlane;fontStyle=0;childLayout=stackLayout;horizontal=1;startSize=30;horizontalStack=0;resizeParent=1;resizeParentMax=0;resizeLast=0;collapsible=1;marginBottom=0;whiteSpace=wrap;html=1;" parent="1" vertex="1">
            <mxGeometry x="610" y="30" width="140" height="282" as="geometry" />
          </mxCell>
        </object>
        <mxCell id="1IV6oj0AkLLf4Vp_rQSQ-18" value="id" style="text;strokeColor=none;fillColor=none;align=left;verticalAlign=middle;spacingLeft=4;spacingRight=4;overflow=hidden;points=[[0,0.5],[1,0.5]];portConstraint=eastwest;rotatable=0;whiteSpace=wrap;html=1;" parent="1IV6oj0AkLLf4Vp_rQSQ-17" vertex="1">
          <mxGeometry y="30" width="140" height="30" as="geometry" />
        </mxCell>
        <mxCell id="SiTH4Ymlxf66pRt1LKJP-3" value="code" style="text;strokeColor=none;fillColor=none;align=left;verticalAlign=middle;spacingLeft=4;spacingRight=4;overflow=hidden;points=[[0,0.5],[1,0.5]];portConstraint=eastwest;rotatable=0;whiteSpace=wrap;html=1;" parent="1IV6oj0AkLLf4Vp_rQSQ-17" vertex="1">
          <mxGeometry y="60" width="140" height="30" as="geometry" />
        </mxCell>
        <mxCell id="1IV6oj0AkLLf4Vp_rQSQ-20" value="description" style="text;strokeColor=none;fillColor=none;align=left;verticalAlign=middle;spacingLeft=4;spacingRight=4;overflow=hidden;points=[[0,0.5],[1,0.5]];portConstraint=eastwest;rotatable=0;whiteSpace=wrap;html=1;" parent="1IV6oj0AkLLf4Vp_rQSQ-17" vertex="1">
          <mxGeometry y="90" width="140" height="30" as="geometry" />
        </mxCell>
        <mxCell id="SiTH4Ymlxf66pRt1LKJP-1" value="visited" style="text;strokeColor=none;fillColor=none;align=left;verticalAlign=middle;spacingLeft=4;spacingRight=4;overflow=hidden;points=[[0,0.5],[1,0.5]];portConstraint=eastwest;rotatable=0;whiteSpace=wrap;html=1;fontStyle=2" parent="1IV6oj0AkLLf4Vp_rQSQ-17" vertex="1">
          <mxGeometry y="120" width="140" height="30" as="geometry" />
        </mxCell>
        <object label="&lt;div style=&quot;background-color: rgb(255, 255, 255); line-height: 19px;&quot;&gt;&lt;div style=&quot;line-height: 19px;&quot;&gt;&lt;font face=&quot;Helvetica&quot;&gt;available_actions&lt;/font&gt;&lt;/div&gt;&lt;/div&gt;" id="1IV6oj0AkLLf4Vp_rQSQ-22">
          <mxCell style="text;strokeColor=none;fillColor=none;align=left;verticalAlign=middle;spacingLeft=4;spacingRight=4;overflow=hidden;points=[[0,0.5],[1,0.5]];portConstraint=eastwest;rotatable=0;whiteSpace=wrap;html=1;" parent="1IV6oj0AkLLf4Vp_rQSQ-17" vertex="1">
            <mxGeometry y="150" width="140" height="33" as="geometry" />
          </mxCell>
        </object>
        <object label="&lt;div style=&quot;background-color: rgb(255, 255, 255); line-height: 19px;&quot;&gt;&lt;div style=&quot;line-height: 19px;&quot;&gt;&lt;font face=&quot;Helvetica&quot;&gt;entering_actions&lt;/font&gt;&lt;/div&gt;&lt;/div&gt;" id="1IV6oj0AkLLf4Vp_rQSQ-23">
          <mxCell style="text;strokeColor=none;fillColor=none;align=left;verticalAlign=middle;spacingLeft=4;spacingRight=4;overflow=hidden;points=[[0,0.5],[1,0.5]];portConstraint=eastwest;rotatable=0;whiteSpace=wrap;html=1;" parent="1IV6oj0AkLLf4Vp_rQSQ-17" vertex="1">
            <mxGeometry y="183" width="140" height="33" as="geometry" />
          </mxCell>
        </object>
        <object label="&lt;div style=&quot;background-color: rgb(255, 255, 255); line-height: 19px;&quot;&gt;&lt;div style=&quot;line-height: 19px;&quot;&gt;&lt;font face=&quot;Helvetica&quot;&gt;leaving_actions&lt;/font&gt;&lt;/div&gt;&lt;/div&gt;" id="1IV6oj0AkLLf4Vp_rQSQ-25">
          <mxCell style="text;strokeColor=none;fillColor=none;align=left;verticalAlign=middle;spacingLeft=4;spacingRight=4;overflow=hidden;points=[[0,0.5],[1,0.5]];portConstraint=eastwest;rotatable=0;whiteSpace=wrap;html=1;" parent="1IV6oj0AkLLf4Vp_rQSQ-17" vertex="1">
            <mxGeometry y="216" width="140" height="33" as="geometry" />
          </mxCell>
        </object>
        <object label="&lt;div style=&quot;background-color: rgb(255, 255, 255); line-height: 19px;&quot;&gt;&lt;div style=&quot;line-height: 19px;&quot;&gt;&lt;font face=&quot;Helvetica&quot;&gt;items&lt;/font&gt;&lt;/div&gt;&lt;/div&gt;" id="1IV6oj0AkLLf4Vp_rQSQ-24">
          <mxCell style="text;strokeColor=none;fillColor=none;align=left;verticalAlign=middle;spacingLeft=4;spacingRight=4;overflow=hidden;points=[[0,0.5],[1,0.5]];portConstraint=eastwest;rotatable=0;whiteSpace=wrap;html=1;" parent="1IV6oj0AkLLf4Vp_rQSQ-17" vertex="1">
            <mxGeometry y="249" width="140" height="33" as="geometry" />
          </mxCell>
        </object>
        <mxCell id="1IV6oj0AkLLf4Vp_rQSQ-26" value="" style="endArrow=none;html=1;rounded=0;exitX=0;exitY=0.5;exitDx=0;exitDy=0;entryX=1;entryY=0.5;entryDx=0;entryDy=0;edgeStyle=orthogonalEdgeStyle;" parent="1" source="1IV6oj0AkLLf4Vp_rQSQ-24" target="1IV6oj0AkLLf4Vp_rQSQ-15" edge="1">
          <mxGeometry width="50" height="50" relative="1" as="geometry">
            <mxPoint x="280" y="215" as="sourcePoint" />
            <mxPoint x="390" y="155" as="targetPoint" />
          </mxGeometry>
        </mxCell>
        <mxCell id="1IV6oj0AkLLf4Vp_rQSQ-27" value="1:n" style="edgeLabel;html=1;align=center;verticalAlign=middle;resizable=0;points=[];" parent="1IV6oj0AkLLf4Vp_rQSQ-26" vertex="1" connectable="0">
          <mxGeometry x="0.0153" y="2" relative="1" as="geometry">
            <mxPoint as="offset" />
          </mxGeometry>
        </mxCell>
        <mxCell id="1IV6oj0AkLLf4Vp_rQSQ-32" value="Action" style="swimlane;fontStyle=0;childLayout=stackLayout;horizontal=1;startSize=30;horizontalStack=0;resizeParent=1;resizeParentMax=0;resizeLast=0;collapsible=1;marginBottom=0;whiteSpace=wrap;html=1;" parent="1" vertex="1">
          <mxGeometry x="340" y="370" width="140" height="300" as="geometry" />
        </mxCell>
        <mxCell id="1IV6oj0AkLLf4Vp_rQSQ-33" value="id" style="text;strokeColor=none;fillColor=none;align=left;verticalAlign=middle;spacingLeft=4;spacingRight=4;overflow=hidden;points=[[0,0.5],[1,0.5]];portConstraint=eastwest;rotatable=0;whiteSpace=wrap;html=1;" parent="1IV6oj0AkLLf4Vp_rQSQ-32" vertex="1">
          <mxGeometry y="30" width="140" height="30" as="geometry" />
        </mxCell>
        <mxCell id="SiTH4Ymlxf66pRt1LKJP-5" value="code" style="text;strokeColor=none;fillColor=none;align=left;verticalAlign=middle;spacingLeft=4;spacingRight=4;overflow=hidden;points=[[0,0.5],[1,0.5]];portConstraint=eastwest;rotatable=0;whiteSpace=wrap;html=1;" parent="1IV6oj0AkLLf4Vp_rQSQ-32" vertex="1">
          <mxGeometry y="60" width="140" height="30" as="geometry" />
        </mxCell>
        <mxCell id="1IV6oj0AkLLf4Vp_rQSQ-34" value="description" style="text;strokeColor=none;fillColor=none;align=left;verticalAlign=middle;spacingLeft=4;spacingRight=4;overflow=hidden;points=[[0,0.5],[1,0.5]];portConstraint=eastwest;rotatable=0;whiteSpace=wrap;html=1;" parent="1IV6oj0AkLLf4Vp_rQSQ-32" vertex="1">
          <mxGeometry y="90" width="140" height="30" as="geometry" />
        </mxCell>
        <mxCell id="1IV6oj0AkLLf4Vp_rQSQ-29" value="operation" style="text;strokeColor=none;fillColor=none;align=left;verticalAlign=middle;spacingLeft=4;spacingRight=4;overflow=hidden;points=[[0,0.5],[1,0.5]];portConstraint=eastwest;rotatable=0;whiteSpace=wrap;html=1;" parent="1IV6oj0AkLLf4Vp_rQSQ-32" vertex="1">
          <mxGeometry y="120" width="140" height="30" as="geometry" />
        </mxCell>
        <mxCell id="wDc-vlpJ7WVGgkL3oMPo-4" value="position_code" style="text;strokeColor=none;fillColor=none;align=left;verticalAlign=middle;spacingLeft=4;spacingRight=4;overflow=hidden;points=[[0,0.5],[1,0.5]];portConstraint=eastwest;rotatable=0;whiteSpace=wrap;html=1;fontStyle=0" parent="1IV6oj0AkLLf4Vp_rQSQ-32" vertex="1">
          <mxGeometry y="150" width="140" height="30" as="geometry" />
        </mxCell>
        <mxCell id="wDc-vlpJ7WVGgkL3oMPo-3" value="item_code" style="text;strokeColor=none;fillColor=none;align=left;verticalAlign=middle;spacingLeft=4;spacingRight=4;overflow=hidden;points=[[0,0.5],[1,0.5]];portConstraint=eastwest;rotatable=0;whiteSpace=wrap;html=1;fontStyle=0" parent="1IV6oj0AkLLf4Vp_rQSQ-32" vertex="1">
          <mxGeometry y="180" width="140" height="30" as="geometry" />
        </mxCell>
        <mxCell id="wDc-vlpJ7WVGgkL3oMPo-6" value="value" style="text;strokeColor=none;fillColor=none;align=left;verticalAlign=middle;spacingLeft=4;spacingRight=4;overflow=hidden;points=[[0,0.5],[1,0.5]];portConstraint=eastwest;rotatable=0;whiteSpace=wrap;html=1;" parent="1IV6oj0AkLLf4Vp_rQSQ-32" vertex="1">
          <mxGeometry y="210" width="140" height="30" as="geometry" />
        </mxCell>
        <mxCell id="1IV6oj0AkLLf4Vp_rQSQ-31" value="function" style="text;strokeColor=none;fillColor=none;align=left;verticalAlign=middle;spacingLeft=4;spacingRight=4;overflow=hidden;points=[[0,0.5],[1,0.5]];portConstraint=eastwest;rotatable=0;whiteSpace=wrap;html=1;" parent="1IV6oj0AkLLf4Vp_rQSQ-32" vertex="1">
          <mxGeometry y="240" width="140" height="30" as="geometry" />
        </mxCell>
        <mxCell id="SiTH4Ymlxf66pRt1LKJP-6" value="active" style="text;strokeColor=none;fillColor=none;align=left;verticalAlign=middle;spacingLeft=4;spacingRight=4;overflow=hidden;points=[[0,0.5],[1,0.5]];portConstraint=eastwest;rotatable=0;whiteSpace=wrap;html=1;fontStyle=2" parent="1IV6oj0AkLLf4Vp_rQSQ-32" vertex="1">
          <mxGeometry y="270" width="140" height="30" as="geometry" />
        </mxCell>
        <mxCell id="1IV6oj0AkLLf4Vp_rQSQ-38" value="Adventure" style="swimlane;fontStyle=0;childLayout=stackLayout;horizontal=1;startSize=30;horizontalStack=0;resizeParent=1;resizeParentMax=0;resizeLast=0;collapsible=1;marginBottom=0;whiteSpace=wrap;html=1;" parent="1" vertex="1">
          <mxGeometry x="600" y="400" width="140" height="303" as="geometry" />
        </mxCell>
        <mxCell id="1IV6oj0AkLLf4Vp_rQSQ-39" value="id" style="text;strokeColor=none;fillColor=none;align=left;verticalAlign=middle;spacingLeft=4;spacingRight=4;overflow=hidden;points=[[0,0.5],[1,0.5]];portConstraint=eastwest;rotatable=0;whiteSpace=wrap;html=1;" parent="1IV6oj0AkLLf4Vp_rQSQ-38" vertex="1">
          <mxGeometry y="30" width="140" height="30" as="geometry" />
        </mxCell>
        <mxCell id="SiTH4Ymlxf66pRt1LKJP-4" value="code" style="text;strokeColor=none;fillColor=none;align=left;verticalAlign=middle;spacingLeft=4;spacingRight=4;overflow=hidden;points=[[0,0.5],[1,0.5]];portConstraint=eastwest;rotatable=0;whiteSpace=wrap;html=1;" parent="1IV6oj0AkLLf4Vp_rQSQ-38" vertex="1">
          <mxGeometry y="60" width="140" height="30" as="geometry" />
        </mxCell>
        <mxCell id="wDc-vlpJ7WVGgkL3oMPo-1" value="title" style="text;strokeColor=none;fillColor=none;align=left;verticalAlign=middle;spacingLeft=4;spacingRight=4;overflow=hidden;points=[[0,0.5],[1,0.5]];portConstraint=eastwest;rotatable=0;whiteSpace=wrap;html=1;" parent="1IV6oj0AkLLf4Vp_rQSQ-38" vertex="1">
          <mxGeometry y="90" width="140" height="30" as="geometry" />
        </mxCell>
        <mxCell id="wDc-vlpJ7WVGgkL3oMPo-2" value="description" style="text;strokeColor=none;fillColor=none;align=left;verticalAlign=middle;spacingLeft=4;spacingRight=4;overflow=hidden;points=[[0,0.5],[1,0.5]];portConstraint=eastwest;rotatable=0;whiteSpace=wrap;html=1;" parent="1IV6oj0AkLLf4Vp_rQSQ-38" vertex="1">
          <mxGeometry y="120" width="140" height="30" as="geometry" />
        </mxCell>
        <mxCell id="1IV6oj0AkLLf4Vp_rQSQ-55" value="positions" style="text;strokeColor=none;fillColor=none;align=left;verticalAlign=middle;spacingLeft=4;spacingRight=4;overflow=hidden;points=[[0,0.5],[1,0.5]];portConstraint=eastwest;rotatable=0;whiteSpace=wrap;html=1;" parent="1IV6oj0AkLLf4Vp_rQSQ-38" vertex="1">
          <mxGeometry y="150" width="140" height="30" as="geometry" />
        </mxCell>
        <mxCell id="1IV6oj0AkLLf4Vp_rQSQ-54" value="actual_position" style="text;strokeColor=none;fillColor=none;align=left;verticalAlign=middle;spacingLeft=4;spacingRight=4;overflow=hidden;points=[[0,0.5],[1,0.5]];portConstraint=eastwest;rotatable=0;whiteSpace=wrap;html=1;fontStyle=2" parent="1IV6oj0AkLLf4Vp_rQSQ-38" vertex="1">
          <mxGeometry y="180" width="140" height="30" as="geometry" />
        </mxCell>
        <mxCell id="1IV6oj0AkLLf4Vp_rQSQ-73" value="player" style="text;strokeColor=none;fillColor=none;align=left;verticalAlign=middle;spacingLeft=4;spacingRight=4;overflow=hidden;points=[[0,0.5],[1,0.5]];portConstraint=eastwest;rotatable=0;whiteSpace=wrap;html=1;" parent="1IV6oj0AkLLf4Vp_rQSQ-38" vertex="1">
          <mxGeometry y="210" width="140" height="30" as="geometry" />
        </mxCell>
        <mxCell id="1IV6oj0AkLLf4Vp_rQSQ-72" value="phase" style="text;strokeColor=none;fillColor=none;align=left;verticalAlign=middle;spacingLeft=4;spacingRight=4;overflow=hidden;points=[[0,0.5],[1,0.5]];portConstraint=eastwest;rotatable=0;whiteSpace=wrap;html=1;fontStyle=2" parent="1IV6oj0AkLLf4Vp_rQSQ-38" vertex="1">
          <mxGeometry y="240" width="140" height="30" as="geometry" />
        </mxCell>
        <object label="&lt;div style=&quot;background-color: rgb(255, 255, 255); line-height: 19px;&quot;&gt;&lt;div style=&quot;line-height: 19px;&quot;&gt;&lt;font face=&quot;Helvetica&quot;&gt;available_actions&lt;/font&gt;&lt;/div&gt;&lt;/div&gt;" id="1IV6oj0AkLLf4Vp_rQSQ-69">
          <mxCell style="text;strokeColor=none;fillColor=none;align=left;verticalAlign=middle;spacingLeft=4;spacingRight=4;overflow=hidden;points=[[0,0.5],[1,0.5]];portConstraint=eastwest;rotatable=0;whiteSpace=wrap;html=1;" parent="1IV6oj0AkLLf4Vp_rQSQ-38" vertex="1">
            <mxGeometry y="270" width="140" height="33" as="geometry" />
          </mxCell>
        </object>
        <mxCell id="1IV6oj0AkLLf4Vp_rQSQ-45" value="" style="endArrow=none;html=1;rounded=0;entryX=1;entryY=0.5;entryDx=0;entryDy=0;edgeStyle=orthogonalEdgeStyle;exitX=1;exitY=0.5;exitDx=0;exitDy=0;" parent="1" source="1IV6oj0AkLLf4Vp_rQSQ-55" target="1IV6oj0AkLLf4Vp_rQSQ-18" edge="1">
          <mxGeometry width="50" height="50" relative="1" as="geometry">
            <mxPoint x="750" y="510" as="sourcePoint" />
            <mxPoint x="530" y="155" as="targetPoint" />
            <Array as="points">
              <mxPoint x="750" y="510" />
              <mxPoint x="780" y="510" />
              <mxPoint x="780" y="145" />
            </Array>
          </mxGeometry>
        </mxCell>
        <mxCell id="1IV6oj0AkLLf4Vp_rQSQ-46" value="1:n" style="edgeLabel;html=1;align=center;verticalAlign=middle;resizable=0;points=[];" parent="1IV6oj0AkLLf4Vp_rQSQ-45" vertex="1" connectable="0">
          <mxGeometry x="0.0153" y="2" relative="1" as="geometry">
            <mxPoint as="offset" />
          </mxGeometry>
        </mxCell>
        <mxCell id="1IV6oj0AkLLf4Vp_rQSQ-48" value="" style="endArrow=none;html=1;rounded=0;exitX=1;exitY=0.5;exitDx=0;exitDy=0;entryX=0;entryY=0.5;entryDx=0;entryDy=0;edgeStyle=orthogonalEdgeStyle;" parent="1" source="1IV6oj0AkLLf4Vp_rQSQ-33" target="1IV6oj0AkLLf4Vp_rQSQ-22" edge="1">
          <mxGeometry width="50" height="50" relative="1" as="geometry">
            <mxPoint x="620" y="379" as="sourcePoint" />
            <mxPoint x="530" y="155" as="targetPoint" />
          </mxGeometry>
        </mxCell>
        <mxCell id="1IV6oj0AkLLf4Vp_rQSQ-49" value="1:n" style="edgeLabel;html=1;align=center;verticalAlign=middle;resizable=0;points=[];" parent="1IV6oj0AkLLf4Vp_rQSQ-48" vertex="1" connectable="0">
          <mxGeometry x="0.0153" y="2" relative="1" as="geometry">
            <mxPoint x="-3" y="-54" as="offset" />
          </mxGeometry>
        </mxCell>
        <mxCell id="1IV6oj0AkLLf4Vp_rQSQ-50" value="" style="endArrow=none;html=1;rounded=0;exitX=1;exitY=0.5;exitDx=0;exitDy=0;entryX=0;entryY=0.5;entryDx=0;entryDy=0;edgeStyle=orthogonalEdgeStyle;" parent="1" source="1IV6oj0AkLLf4Vp_rQSQ-33" target="1IV6oj0AkLLf4Vp_rQSQ-23" edge="1">
          <mxGeometry width="50" height="50" relative="1" as="geometry">
            <mxPoint x="490" y="425" as="sourcePoint" />
            <mxPoint x="620" y="280" as="targetPoint" />
            <Array as="points">
              <mxPoint x="530" y="415" />
              <mxPoint x="530" y="303" />
            </Array>
          </mxGeometry>
        </mxCell>
        <mxCell id="1IV6oj0AkLLf4Vp_rQSQ-51" value="1:n" style="edgeLabel;html=1;align=center;verticalAlign=middle;resizable=0;points=[];" parent="1IV6oj0AkLLf4Vp_rQSQ-50" vertex="1" connectable="0">
          <mxGeometry x="0.0153" y="2" relative="1" as="geometry">
            <mxPoint y="10" as="offset" />
          </mxGeometry>
        </mxCell>
        <mxCell id="1IV6oj0AkLLf4Vp_rQSQ-52" value="" style="endArrow=none;html=1;rounded=0;exitX=1;exitY=0.5;exitDx=0;exitDy=0;entryX=0;entryY=0.5;entryDx=0;entryDy=0;edgeStyle=orthogonalEdgeStyle;" parent="1" source="1IV6oj0AkLLf4Vp_rQSQ-33" target="1IV6oj0AkLLf4Vp_rQSQ-25" edge="1">
          <mxGeometry width="50" height="50" relative="1" as="geometry">
            <mxPoint x="500" y="435" as="sourcePoint" />
            <mxPoint x="630" y="290" as="targetPoint" />
            <Array as="points">
              <mxPoint x="510" y="415" />
              <mxPoint x="510" y="336" />
            </Array>
          </mxGeometry>
        </mxCell>
        <mxCell id="1IV6oj0AkLLf4Vp_rQSQ-53" value="1:n" style="edgeLabel;html=1;align=center;verticalAlign=middle;resizable=0;points=[];" parent="1IV6oj0AkLLf4Vp_rQSQ-52" vertex="1" connectable="0">
          <mxGeometry x="0.0153" y="2" relative="1" as="geometry">
            <mxPoint y="21" as="offset" />
          </mxGeometry>
        </mxCell>
        <mxCell id="1IV6oj0AkLLf4Vp_rQSQ-57" value="" style="edgeStyle=orthogonalEdgeStyle;rounded=0;orthogonalLoop=1;jettySize=auto;html=1;entryX=0;entryY=0.5;entryDx=0;entryDy=0;exitX=0;exitY=0.5;exitDx=0;exitDy=0;" parent="1" target="1IV6oj0AkLLf4Vp_rQSQ-15" edge="1">
          <mxGeometry relative="1" as="geometry">
            <mxPoint x="340" y="565" as="sourcePoint" />
            <mxPoint x="350" y="485" as="targetPoint" />
            <Array as="points">
              <mxPoint x="280" y="505" />
              <mxPoint x="280" y="145" />
            </Array>
          </mxGeometry>
        </mxCell>
        <mxCell id="1IV6oj0AkLLf4Vp_rQSQ-58" value="1:1" style="edgeLabel;html=1;align=center;verticalAlign=middle;resizable=0;points=[];" parent="1IV6oj0AkLLf4Vp_rQSQ-57" vertex="1" connectable="0">
          <mxGeometry x="-0.152" y="2" relative="1" as="geometry">
            <mxPoint as="offset" />
          </mxGeometry>
        </mxCell>
        <mxCell id="1IV6oj0AkLLf4Vp_rQSQ-59" value="" style="edgeStyle=orthogonalEdgeStyle;rounded=0;orthogonalLoop=1;jettySize=auto;html=1;entryX=0;entryY=0.5;entryDx=0;entryDy=0;exitX=0;exitY=0.5;exitDx=0;exitDy=0;" parent="1" target="1IV6oj0AkLLf4Vp_rQSQ-18" edge="1">
          <mxGeometry relative="1" as="geometry">
            <mxPoint x="340" y="595" as="sourcePoint" />
            <mxPoint x="390" y="155" as="targetPoint" />
            <Array as="points">
              <mxPoint x="340" y="535" />
              <mxPoint x="290" y="535" />
              <mxPoint x="290" y="290" />
              <mxPoint x="590" y="290" />
              <mxPoint x="590" y="145" />
            </Array>
          </mxGeometry>
        </mxCell>
        <mxCell id="1IV6oj0AkLLf4Vp_rQSQ-60" value="1:1" style="edgeLabel;html=1;align=center;verticalAlign=middle;resizable=0;points=[];" parent="1IV6oj0AkLLf4Vp_rQSQ-59" vertex="1" connectable="0">
          <mxGeometry x="-0.152" y="2" relative="1" as="geometry">
            <mxPoint as="offset" />
          </mxGeometry>
        </mxCell>
        <mxCell id="1IV6oj0AkLLf4Vp_rQSQ-61" value="" style="endArrow=none;html=1;rounded=0;edgeStyle=orthogonalEdgeStyle;exitX=1;exitY=0.5;exitDx=0;exitDy=0;" parent="1" source="1IV6oj0AkLLf4Vp_rQSQ-54" edge="1">
          <mxGeometry width="50" height="50" relative="1" as="geometry">
            <mxPoint x="790" y="545" as="sourcePoint" />
            <mxPoint x="750" y="145" as="targetPoint" />
            <Array as="points">
              <mxPoint x="830" y="545" />
              <mxPoint x="830" y="145" />
            </Array>
          </mxGeometry>
        </mxCell>
        <mxCell id="1IV6oj0AkLLf4Vp_rQSQ-62" value="1:n" style="edgeLabel;html=1;align=center;verticalAlign=middle;resizable=0;points=[];" parent="1IV6oj0AkLLf4Vp_rQSQ-61" vertex="1" connectable="0">
          <mxGeometry x="0.0153" y="2" relative="1" as="geometry">
            <mxPoint as="offset" />
          </mxGeometry>
        </mxCell>
        <mxCell id="1IV6oj0AkLLf4Vp_rQSQ-70" value="" style="endArrow=none;html=1;rounded=0;exitX=1;exitY=0.5;exitDx=0;exitDy=0;entryX=0;entryY=0.5;entryDx=0;entryDy=0;edgeStyle=orthogonalEdgeStyle;" parent="1" source="1IV6oj0AkLLf4Vp_rQSQ-33" target="1IV6oj0AkLLf4Vp_rQSQ-69" edge="1">
          <mxGeometry width="50" height="50" relative="1" as="geometry">
            <mxPoint x="490" y="425" as="sourcePoint" />
            <mxPoint x="620" y="313" as="targetPoint" />
            <Array as="points">
              <mxPoint x="480" y="425" />
              <mxPoint x="520" y="425" />
              <mxPoint x="520" y="657" />
            </Array>
          </mxGeometry>
        </mxCell>
        <mxCell id="1IV6oj0AkLLf4Vp_rQSQ-71" value="1:n" style="edgeLabel;html=1;align=center;verticalAlign=middle;resizable=0;points=[];" parent="1IV6oj0AkLLf4Vp_rQSQ-70" vertex="1" connectable="0">
          <mxGeometry x="0.0153" y="2" relative="1" as="geometry">
            <mxPoint y="21" as="offset" />
          </mxGeometry>
        </mxCell>
        <mxCell id="1IV6oj0AkLLf4Vp_rQSQ-76" value="" style="endArrow=none;html=1;rounded=0;exitX=0;exitY=0.5;exitDx=0;exitDy=0;entryX=0;entryY=0.5;entryDx=0;entryDy=0;edgeStyle=orthogonalEdgeStyle;" parent="1" source="1IV6oj0AkLLf4Vp_rQSQ-78" target="1IV6oj0AkLLf4Vp_rQSQ-73" edge="1">
          <mxGeometry width="50" height="50" relative="1" as="geometry">
            <mxPoint x="280" y="185" as="sourcePoint" />
            <mxPoint x="390" y="155" as="targetPoint" />
            <Array as="points">
              <mxPoint x="100" y="145" />
              <mxPoint x="100" y="740" />
              <mxPoint x="570" y="740" />
              <mxPoint x="570" y="595" />
              <mxPoint x="600" y="595" />
            </Array>
          </mxGeometry>
        </mxCell>
        <mxCell id="1IV6oj0AkLLf4Vp_rQSQ-77" value="1:n" style="edgeLabel;html=1;align=center;verticalAlign=middle;resizable=0;points=[];" parent="1IV6oj0AkLLf4Vp_rQSQ-76" vertex="1" connectable="0">
          <mxGeometry x="0.0153" y="2" relative="1" as="geometry">
            <mxPoint as="offset" />
          </mxGeometry>
        </mxCell>
      </root>
    </mxGraphModel>
  </diagram>
  <diagram id="Xv6sLiiodAIHcnlPZoqA" name="dungeon flow">
    <mxGraphModel dx="1434" dy="1846" grid="1" gridSize="10" guides="1" tooltips="1" connect="1" arrows="1" fold="1" page="1" pageScale="1" pageWidth="850" pageHeight="1100" math="0" shadow="0">
      <root>
        <mxCell id="0" />
        <mxCell id="1" parent="0" />
        <mxCell id="OpHPQtOI1xMnlN20b7Oq-1" value="0&lt;br&gt;In front of a dungeon" style="rounded=1;whiteSpace=wrap;html=1;absoluteArcSize=1;arcSize=14;strokeWidth=2;" parent="1" vertex="1">
          <mxGeometry x="368.5" y="440" width="100" height="100" as="geometry" />
        </mxCell>
        <mxCell id="OpHPQtOI1xMnlN20b7Oq-5" value="" style="edgeStyle=orthogonalEdgeStyle;rounded=0;orthogonalLoop=1;jettySize=auto;html=1;exitX=1;exitY=0.5;exitDx=0;exitDy=0;" parent="1" source="OpHPQtOI1xMnlN20b7Oq-1" target="OpHPQtOI1xMnlN20b7Oq-4" edge="1">
          <mxGeometry relative="1" as="geometry">
            <mxPoint x="460" y="400" as="sourcePoint" />
          </mxGeometry>
        </mxCell>
        <mxCell id="OpHPQtOI1xMnlN20b7Oq-8" value="" style="edgeStyle=orthogonalEdgeStyle;rounded=0;orthogonalLoop=1;jettySize=auto;html=1;exitX=0.75;exitY=0;exitDx=0;exitDy=0;entryX=0.75;entryY=1;entryDx=0;entryDy=0;" parent="1" source="OpHPQtOI1xMnlN20b7Oq-1" target="OpHPQtOI1xMnlN20b7Oq-7" edge="1">
          <mxGeometry relative="1" as="geometry">
            <mxPoint x="420" y="360" as="sourcePoint" />
          </mxGeometry>
        </mxCell>
        <mxCell id="OpHPQtOI1xMnlN20b7Oq-4" value="-1 &lt;br&gt;Adventure ends" style="whiteSpace=wrap;html=1;rounded=1;arcSize=14;strokeWidth=2;" parent="1" vertex="1">
          <mxGeometry x="530.5" y="460" width="120" height="60" as="geometry" />
        </mxCell>
        <mxCell id="OpHPQtOI1xMnlN20b7Oq-11" value="" style="edgeStyle=orthogonalEdgeStyle;rounded=0;orthogonalLoop=1;jettySize=auto;html=1;" parent="1" source="OpHPQtOI1xMnlN20b7Oq-7" target="OpHPQtOI1xMnlN20b7Oq-10" edge="1">
          <mxGeometry relative="1" as="geometry" />
        </mxCell>
        <mxCell id="mxqUm0Fkxh0u8gYya8W_-3" style="edgeStyle=orthogonalEdgeStyle;rounded=0;orthogonalLoop=1;jettySize=auto;html=1;exitX=0.25;exitY=1;exitDx=0;exitDy=0;" parent="1" source="OpHPQtOI1xMnlN20b7Oq-7" target="mxqUm0Fkxh0u8gYya8W_-1" edge="1">
          <mxGeometry relative="1" as="geometry" />
        </mxCell>
        <mxCell id="OpHPQtOI1xMnlN20b7Oq-7" value="1&lt;br&gt;Dark" style="whiteSpace=wrap;html=1;rounded=1;arcSize=14;strokeWidth=2;" parent="1" vertex="1">
          <mxGeometry x="369" y="180" width="100" height="90" as="geometry" />
        </mxCell>
        <mxCell id="OpHPQtOI1xMnlN20b7Oq-13" value="" style="edgeStyle=orthogonalEdgeStyle;rounded=0;orthogonalLoop=1;jettySize=auto;html=1;" parent="1" source="OpHPQtOI1xMnlN20b7Oq-10" target="OpHPQtOI1xMnlN20b7Oq-12" edge="1">
          <mxGeometry relative="1" as="geometry" />
        </mxCell>
        <mxCell id="OpHPQtOI1xMnlN20b7Oq-14" value="No" style="edgeLabel;html=1;align=center;verticalAlign=middle;resizable=0;points=[];" parent="OpHPQtOI1xMnlN20b7Oq-13" vertex="1" connectable="0">
          <mxGeometry x="-0.3588" y="3" relative="1" as="geometry">
            <mxPoint as="offset" />
          </mxGeometry>
        </mxCell>
        <mxCell id="OpHPQtOI1xMnlN20b7Oq-16" value="" style="edgeStyle=orthogonalEdgeStyle;rounded=0;orthogonalLoop=1;jettySize=auto;html=1;" parent="1" source="OpHPQtOI1xMnlN20b7Oq-10" target="OpHPQtOI1xMnlN20b7Oq-15" edge="1">
          <mxGeometry relative="1" as="geometry" />
        </mxCell>
        <mxCell id="OpHPQtOI1xMnlN20b7Oq-17" value="Yes" style="edgeLabel;html=1;align=center;verticalAlign=middle;resizable=0;points=[];" parent="OpHPQtOI1xMnlN20b7Oq-16" vertex="1" connectable="0">
          <mxGeometry x="-0.1111" y="1" relative="1" as="geometry">
            <mxPoint x="1" as="offset" />
          </mxGeometry>
        </mxCell>
        <mxCell id="OpHPQtOI1xMnlN20b7Oq-10" value="Lit a torch?" style="rhombus;whiteSpace=wrap;html=1;rounded=1;arcSize=14;strokeWidth=2;" parent="1" vertex="1">
          <mxGeometry x="374" y="15" width="91" height="80" as="geometry" />
        </mxCell>
        <mxCell id="OpHPQtOI1xMnlN20b7Oq-12" value="-2 &lt;br&gt;Fell off staircase. Dead." style="whiteSpace=wrap;html=1;rounded=1;arcSize=14;strokeWidth=2;" parent="1" vertex="1">
          <mxGeometry x="530.5" y="25" width="120" height="60" as="geometry" />
        </mxCell>
        <mxCell id="OpHPQtOI1xMnlN20b7Oq-15" value="2&lt;br&gt;staircase, junction" style="whiteSpace=wrap;html=1;rounded=1;arcSize=14;strokeWidth=2;" parent="1" vertex="1">
          <mxGeometry x="369" y="-275" width="120" height="60" as="geometry" />
        </mxCell>
        <mxCell id="OpHPQtOI1xMnlN20b7Oq-21" value="" style="edgeStyle=orthogonalEdgeStyle;rounded=0;orthogonalLoop=1;jettySize=auto;html=1;" parent="1" target="OpHPQtOI1xMnlN20b7Oq-20" edge="1">
          <mxGeometry relative="1" as="geometry">
            <mxPoint x="490" y="-245" as="sourcePoint" />
          </mxGeometry>
        </mxCell>
        <mxCell id="OpHPQtOI1xMnlN20b7Oq-22" value="Right" style="edgeLabel;html=1;align=center;verticalAlign=middle;resizable=0;points=[];" parent="OpHPQtOI1xMnlN20b7Oq-21" vertex="1" connectable="0">
          <mxGeometry x="-0.4833" relative="1" as="geometry">
            <mxPoint as="offset" />
          </mxGeometry>
        </mxCell>
        <mxCell id="OpHPQtOI1xMnlN20b7Oq-24" value="" style="edgeStyle=orthogonalEdgeStyle;rounded=0;orthogonalLoop=1;jettySize=auto;html=1;exitX=0;exitY=0.5;exitDx=0;exitDy=0;" parent="1" source="OpHPQtOI1xMnlN20b7Oq-15" target="OpHPQtOI1xMnlN20b7Oq-23" edge="1">
          <mxGeometry relative="1" as="geometry">
            <mxPoint x="379.5" y="-245" as="sourcePoint" />
          </mxGeometry>
        </mxCell>
        <mxCell id="OpHPQtOI1xMnlN20b7Oq-25" value="Left" style="edgeLabel;html=1;align=center;verticalAlign=middle;resizable=0;points=[];" parent="OpHPQtOI1xMnlN20b7Oq-24" vertex="1" connectable="0">
          <mxGeometry x="-0.55" y="-2" relative="1" as="geometry">
            <mxPoint as="offset" />
          </mxGeometry>
        </mxCell>
        <mxCell id="8qVD9jUPMmLjYSouc_5j-6" value="" style="edgeStyle=orthogonalEdgeStyle;rounded=0;orthogonalLoop=1;jettySize=auto;html=1;exitX=0.433;exitY=0.017;exitDx=0;exitDy=0;exitPerimeter=0;" parent="1" source="OpHPQtOI1xMnlN20b7Oq-15" target="8qVD9jUPMmLjYSouc_5j-5" edge="1">
          <mxGeometry relative="1" as="geometry">
            <mxPoint x="420" y="-285" as="sourcePoint" />
          </mxGeometry>
        </mxCell>
        <mxCell id="8qVD9jUPMmLjYSouc_5j-22" value="forward" style="edgeLabel;html=1;align=center;verticalAlign=middle;resizable=0;points=[];" parent="8qVD9jUPMmLjYSouc_5j-6" vertex="1" connectable="0">
          <mxGeometry x="-0.0889" y="3" relative="1" as="geometry">
            <mxPoint x="1" as="offset" />
          </mxGeometry>
        </mxCell>
        <mxCell id="8qVD9jUPMmLjYSouc_5j-3" value="" style="edgeStyle=orthogonalEdgeStyle;rounded=0;orthogonalLoop=1;jettySize=auto;html=1;entryX=0.5;entryY=1;entryDx=0;entryDy=0;" parent="1" source="OpHPQtOI1xMnlN20b7Oq-20" target="8qVD9jUPMmLjYSouc_5j-19" edge="1">
          <mxGeometry relative="1" as="geometry" />
        </mxCell>
        <mxCell id="OpHPQtOI1xMnlN20b7Oq-20" value="5&lt;br&gt;spider web" style="whiteSpace=wrap;html=1;rounded=1;arcSize=14;strokeWidth=2;" parent="1" vertex="1">
          <mxGeometry x="519.5" y="-275" width="120" height="60" as="geometry" />
        </mxCell>
        <mxCell id="8qVD9jUPMmLjYSouc_5j-24" value="" style="edgeStyle=orthogonalEdgeStyle;rounded=0;orthogonalLoop=1;jettySize=auto;html=1;" parent="1" source="OpHPQtOI1xMnlN20b7Oq-23" target="8qVD9jUPMmLjYSouc_5j-23" edge="1">
          <mxGeometry relative="1" as="geometry" />
        </mxCell>
        <mxCell id="OpHPQtOI1xMnlN20b7Oq-23" value="8&lt;br&gt;rusty iron door" style="whiteSpace=wrap;html=1;rounded=1;arcSize=14;strokeWidth=2;" parent="1" vertex="1">
          <mxGeometry x="199.5" y="-275" width="120" height="60" as="geometry" />
        </mxCell>
        <mxCell id="8qVD9jUPMmLjYSouc_5j-1" value="Light a torch" style="shape=parallelogram;perimeter=parallelogramPerimeter;whiteSpace=wrap;html=1;fixedSize=1;" parent="1" vertex="1">
          <mxGeometry x="470" y="195" width="120" height="60" as="geometry" />
        </mxCell>
        <mxCell id="8qVD9jUPMmLjYSouc_5j-20" value="" style="edgeStyle=orthogonalEdgeStyle;rounded=0;orthogonalLoop=1;jettySize=auto;html=1;entryX=-0.029;entryY=0.633;entryDx=0;entryDy=0;entryPerimeter=0;" parent="1" source="8qVD9jUPMmLjYSouc_5j-2" target="8qVD9jUPMmLjYSouc_5j-25" edge="1">
          <mxGeometry relative="1" as="geometry" />
        </mxCell>
        <mxCell id="8qVD9jUPMmLjYSouc_5j-2" value="6&lt;div&gt;ork hut&lt;/div&gt;" style="whiteSpace=wrap;html=1;rounded=1;arcSize=14;strokeWidth=2;" parent="1" vertex="1">
          <mxGeometry x="519.5" y="-565" width="120" height="60" as="geometry" />
        </mxCell>
        <mxCell id="8qVD9jUPMmLjYSouc_5j-4" value="pick up dirty rag (knife)" style="shape=parallelogram;perimeter=parallelogramPerimeter;whiteSpace=wrap;html=1;fixedSize=1;" parent="1" vertex="1">
          <mxGeometry x="239.5" y="-435" width="120" height="60" as="geometry" />
        </mxCell>
        <mxCell id="8qVD9jUPMmLjYSouc_5j-8" value="" style="edgeStyle=orthogonalEdgeStyle;rounded=0;orthogonalLoop=1;jettySize=auto;html=1;entryX=0.5;entryY=1;entryDx=0;entryDy=0;" parent="1" source="8qVD9jUPMmLjYSouc_5j-5" target="8qVD9jUPMmLjYSouc_5j-9" edge="1">
          <mxGeometry relative="1" as="geometry" />
        </mxCell>
        <mxCell id="8qVD9jUPMmLjYSouc_5j-5" value="3&lt;br&gt;round chamber" style="whiteSpace=wrap;html=1;rounded=1;arcSize=14;strokeWidth=2;" parent="1" vertex="1">
          <mxGeometry x="359.5" y="-435" width="120" height="60" as="geometry" />
        </mxCell>
        <mxCell id="8qVD9jUPMmLjYSouc_5j-7" value="(4)&lt;br&gt;slithering snake demon" style="whiteSpace=wrap;html=1;rounded=1;arcSize=14;strokeWidth=2;strokeColor=#000000;" parent="1" vertex="1">
          <mxGeometry x="359.5" y="-610" width="120" height="60" as="geometry" />
        </mxCell>
        <mxCell id="8qVD9jUPMmLjYSouc_5j-12" value="" style="edgeStyle=orthogonalEdgeStyle;rounded=0;orthogonalLoop=1;jettySize=auto;html=1;" parent="1" source="8qVD9jUPMmLjYSouc_5j-9" target="8qVD9jUPMmLjYSouc_5j-11" edge="1">
          <mxGeometry relative="1" as="geometry">
            <Array as="points">
              <mxPoint x="250" y="-540" />
            </Array>
          </mxGeometry>
        </mxCell>
        <mxCell id="8qVD9jUPMmLjYSouc_5j-13" value="yes" style="edgeLabel;html=1;align=center;verticalAlign=middle;resizable=0;points=[];" parent="8qVD9jUPMmLjYSouc_5j-12" vertex="1" connectable="0">
          <mxGeometry x="-0.1333" relative="1" as="geometry">
            <mxPoint as="offset" />
          </mxGeometry>
        </mxCell>
        <mxCell id="8qVD9jUPMmLjYSouc_5j-17" value="" style="edgeStyle=orthogonalEdgeStyle;rounded=0;orthogonalLoop=1;jettySize=auto;html=1;" parent="1" source="8qVD9jUPMmLjYSouc_5j-9" target="8qVD9jUPMmLjYSouc_5j-16" edge="1">
          <mxGeometry relative="1" as="geometry" />
        </mxCell>
        <mxCell id="8qVD9jUPMmLjYSouc_5j-18" value="no" style="edgeLabel;html=1;align=center;verticalAlign=middle;resizable=0;points=[];" parent="8qVD9jUPMmLjYSouc_5j-17" vertex="1" connectable="0">
          <mxGeometry x="0.0333" relative="1" as="geometry">
            <mxPoint as="offset" />
          </mxGeometry>
        </mxCell>
        <mxCell id="8qVD9jUPMmLjYSouc_5j-9" value="Are you lucky?" style="rhombus;whiteSpace=wrap;html=1;rounded=1;arcSize=14;strokeWidth=2;" parent="1" vertex="1">
          <mxGeometry x="379.5" y="-550" width="80" height="80" as="geometry" />
        </mxCell>
        <mxCell id="8qVD9jUPMmLjYSouc_5j-11" value="-4&lt;br&gt;seizure on the left arm, able to quit" style="whiteSpace=wrap;html=1;rounded=1;arcSize=14;strokeWidth=2;" parent="1" vertex="1">
          <mxGeometry x="190" y="-635" width="120" height="60" as="geometry" />
        </mxCell>
        <mxCell id="8qVD9jUPMmLjYSouc_5j-16" value="-3&lt;br&gt;dead by venom" style="whiteSpace=wrap;html=1;rounded=1;arcSize=14;strokeWidth=2;" parent="1" vertex="1">
          <mxGeometry x="180" y="-518" width="120" height="60" as="geometry" />
        </mxCell>
        <mxCell id="8qVD9jUPMmLjYSouc_5j-26" value="" style="edgeStyle=orthogonalEdgeStyle;rounded=0;orthogonalLoop=1;jettySize=auto;html=1;entryX=0.5;entryY=1;entryDx=0;entryDy=0;" parent="1" source="8qVD9jUPMmLjYSouc_5j-19" target="8qVD9jUPMmLjYSouc_5j-2" edge="1">
          <mxGeometry relative="1" as="geometry" />
        </mxCell>
        <mxCell id="8qVD9jUPMmLjYSouc_5j-27" value="yes" style="edgeLabel;html=1;align=center;verticalAlign=middle;resizable=0;points=[];" parent="8qVD9jUPMmLjYSouc_5j-26" vertex="1" connectable="0">
          <mxGeometry x="-0.4833" y="3" relative="1" as="geometry">
            <mxPoint as="offset" />
          </mxGeometry>
        </mxCell>
        <mxCell id="HDW13lFz8kkw8iT4QfQf-1" value="" style="edgeStyle=orthogonalEdgeStyle;rounded=0;orthogonalLoop=1;jettySize=auto;html=1;" parent="1" source="8qVD9jUPMmLjYSouc_5j-19" target="8qVD9jUPMmLjYSouc_5j-28" edge="1">
          <mxGeometry relative="1" as="geometry" />
        </mxCell>
        <mxCell id="HDW13lFz8kkw8iT4QfQf-2" value="no" style="edgeLabel;html=1;align=center;verticalAlign=middle;resizable=0;points=[];" parent="HDW13lFz8kkw8iT4QfQf-1" vertex="1" connectable="0">
          <mxGeometry x="-0.1348" y="-1" relative="1" as="geometry">
            <mxPoint x="1" as="offset" />
          </mxGeometry>
        </mxCell>
        <mxCell id="8qVD9jUPMmLjYSouc_5j-19" value="You pulled out the knife?" style="rhombus;whiteSpace=wrap;html=1;rounded=1;arcSize=14;strokeWidth=2;" parent="1" vertex="1">
          <mxGeometry x="539.5" y="-410" width="80" height="80" as="geometry" />
        </mxCell>
        <mxCell id="8qVD9jUPMmLjYSouc_5j-21" value="pull the knife" style="shape=parallelogram;perimeter=parallelogramPerimeter;whiteSpace=wrap;html=1;fixedSize=1;" parent="1" vertex="1">
          <mxGeometry x="519.5" y="-215" width="120" height="60" as="geometry" />
        </mxCell>
        <mxCell id="8qVD9jUPMmLjYSouc_5j-40" value="" style="edgeStyle=orthogonalEdgeStyle;rounded=0;orthogonalLoop=1;jettySize=auto;html=1;" parent="1" source="8qVD9jUPMmLjYSouc_5j-23" target="8qVD9jUPMmLjYSouc_5j-39" edge="1">
          <mxGeometry relative="1" as="geometry" />
        </mxCell>
        <mxCell id="8qVD9jUPMmLjYSouc_5j-41" value="yes" style="edgeLabel;html=1;align=center;verticalAlign=middle;resizable=0;points=[];" parent="8qVD9jUPMmLjYSouc_5j-40" vertex="1" connectable="0">
          <mxGeometry x="-0.3333" y="1" relative="1" as="geometry">
            <mxPoint as="offset" />
          </mxGeometry>
        </mxCell>
        <mxCell id="8qVD9jUPMmLjYSouc_5j-23" value="did you turn the key?" style="rhombus;whiteSpace=wrap;html=1;rounded=1;arcSize=14;strokeWidth=2;" parent="1" vertex="1">
          <mxGeometry x="90" y="-285" width="80" height="80" as="geometry" />
        </mxCell>
        <mxCell id="8qVD9jUPMmLjYSouc_5j-25" value="7&lt;div&gt;huge chamber with a lake&lt;/div&gt;" style="whiteSpace=wrap;html=1;rounded=1;arcSize=14;strokeWidth=2;" parent="1" vertex="1">
          <mxGeometry x="679.5" y="-573" width="120" height="60" as="geometry" />
        </mxCell>
        <mxCell id="8qVD9jUPMmLjYSouc_5j-28" value="-5&lt;div&gt;dead by ork&lt;/div&gt;" style="whiteSpace=wrap;html=1;rounded=1;arcSize=14;strokeWidth=2;" parent="1" vertex="1">
          <mxGeometry x="690" y="-400" width="120" height="60" as="geometry" />
        </mxCell>
        <mxCell id="8qVD9jUPMmLjYSouc_5j-32" value="look around (key)" style="shape=parallelogram;perimeter=parallelogramPerimeter;whiteSpace=wrap;html=1;fixedSize=1;" parent="1" vertex="1">
          <mxGeometry x="679.5" y="-633" width="120" height="60" as="geometry" />
        </mxCell>
        <mxCell id="8qVD9jUPMmLjYSouc_5j-35" value="turn the key in the keyhole" style="shape=parallelogram;perimeter=parallelogramPerimeter;whiteSpace=wrap;html=1;fixedSize=1;" parent="1" vertex="1">
          <mxGeometry x="190" y="-215" width="120" height="60" as="geometry" />
        </mxCell>
        <mxCell id="8qVD9jUPMmLjYSouc_5j-60" style="edgeStyle=orthogonalEdgeStyle;rounded=0;orthogonalLoop=1;jettySize=auto;html=1;entryX=0;entryY=0.5;entryDx=0;entryDy=0;exitX=0;exitY=0.5;exitDx=0;exitDy=0;" parent="1" source="8qVD9jUPMmLjYSouc_5j-39" target="8qVD9jUPMmLjYSouc_5j-46" edge="1">
          <mxGeometry relative="1" as="geometry">
            <mxPoint x="50" y="50" as="targetPoint" />
          </mxGeometry>
        </mxCell>
        <mxCell id="8qVD9jUPMmLjYSouc_5j-67" value="narrow" style="edgeLabel;html=1;align=center;verticalAlign=middle;resizable=0;points=[];" parent="8qVD9jUPMmLjYSouc_5j-60" vertex="1" connectable="0">
          <mxGeometry x="0.3941" y="-4" relative="1" as="geometry">
            <mxPoint as="offset" />
          </mxGeometry>
        </mxCell>
        <mxCell id="8qVD9jUPMmLjYSouc_5j-68" style="edgeStyle=orthogonalEdgeStyle;rounded=0;orthogonalLoop=1;jettySize=auto;html=1;exitX=0;exitY=0;exitDx=0;exitDy=0;entryX=0.25;entryY=0;entryDx=0;entryDy=0;" parent="1" source="8qVD9jUPMmLjYSouc_5j-39" target="8qVD9jUPMmLjYSouc_5j-39" edge="1">
          <mxGeometry relative="1" as="geometry">
            <mxPoint x="10" y="-190" as="targetPoint" />
            <Array as="points">
              <mxPoint x="70" y="-190" />
              <mxPoint x="100" y="-190" />
            </Array>
          </mxGeometry>
        </mxCell>
        <mxCell id="8qVD9jUPMmLjYSouc_5j-69" value="wide" style="edgeLabel;html=1;align=center;verticalAlign=middle;resizable=0;points=[];" parent="8qVD9jUPMmLjYSouc_5j-68" vertex="1" connectable="0">
          <mxGeometry x="-0.3444" y="1" relative="1" as="geometry">
            <mxPoint as="offset" />
          </mxGeometry>
        </mxCell>
        <mxCell id="8qVD9jUPMmLjYSouc_5j-39" value="9&lt;div&gt;elegant treasure room&lt;/div&gt;" style="whiteSpace=wrap;html=1;rounded=1;arcSize=14;strokeWidth=2;" parent="1" vertex="1">
          <mxGeometry x="70" y="-115" width="120" height="60" as="geometry" />
        </mxCell>
        <mxCell id="8qVD9jUPMmLjYSouc_5j-45" value="" style="edgeStyle=orthogonalEdgeStyle;rounded=0;orthogonalLoop=1;jettySize=auto;html=1;exitX=0.5;exitY=1;exitDx=0;exitDy=0;" parent="1" source="8qVD9jUPMmLjYSouc_5j-48" target="8qVD9jUPMmLjYSouc_5j-44" edge="1">
          <mxGeometry relative="1" as="geometry">
            <mxPoint x="170" y="55" as="sourcePoint" />
          </mxGeometry>
        </mxCell>
        <mxCell id="8qVD9jUPMmLjYSouc_5j-44" value="-7&lt;br&gt;got caught by a mimic" style="whiteSpace=wrap;html=1;rounded=1;arcSize=14;strokeWidth=2;" parent="1" vertex="1">
          <mxGeometry x="170" y="25" width="120" height="60" as="geometry" />
        </mxCell>
        <mxCell id="8qVD9jUPMmLjYSouc_5j-66" value="" style="edgeStyle=orthogonalEdgeStyle;rounded=0;orthogonalLoop=1;jettySize=auto;html=1;entryX=0.01;entryY=0.378;entryDx=0;entryDy=0;entryPerimeter=0;" parent="1" source="8qVD9jUPMmLjYSouc_5j-46" target="OpHPQtOI1xMnlN20b7Oq-7" edge="1">
          <mxGeometry relative="1" as="geometry">
            <mxPoint x="219.5" y="215" as="targetPoint" />
          </mxGeometry>
        </mxCell>
        <mxCell id="8qVD9jUPMmLjYSouc_5j-46" value="10&lt;div&gt;slope upward&lt;/div&gt;" style="whiteSpace=wrap;html=1;rounded=1;arcSize=14;strokeWidth=2;" parent="1" vertex="1">
          <mxGeometry x="70" y="185" width="120" height="60" as="geometry" />
        </mxCell>
        <mxCell id="8qVD9jUPMmLjYSouc_5j-48" value="inspect the copper chest&amp;nbsp;" style="shape=parallelogram;perimeter=parallelogramPerimeter;whiteSpace=wrap;html=1;fixedSize=1;" parent="1" vertex="1">
          <mxGeometry x="170" y="-75" width="120" height="60" as="geometry" />
        </mxCell>
        <mxCell id="8qVD9jUPMmLjYSouc_5j-49" value="inspect the dirty wooden chest" style="shape=parallelogram;perimeter=parallelogramPerimeter;whiteSpace=wrap;html=1;fixedSize=1;" parent="1" vertex="1">
          <mxGeometry x="190" y="-135" width="120" height="60" as="geometry" />
        </mxCell>
        <mxCell id="D_2KPJa1WGzG-PhntzP1-2" value="0&lt;div&gt;torch&lt;/div&gt;" style="ellipse;whiteSpace=wrap;html=1;aspect=fixed;" parent="1" vertex="1">
          <mxGeometry x="318.5" y="460" width="50" height="50" as="geometry" />
        </mxCell>
        <mxCell id="D_2KPJa1WGzG-PhntzP1-3" value="&lt;div&gt;1&lt;/div&gt;&lt;div&gt;knife&lt;/div&gt;" style="ellipse;whiteSpace=wrap;html=1;aspect=fixed;" parent="1" vertex="1">
          <mxGeometry x="280" y="-375" width="50" height="50" as="geometry" />
        </mxCell>
        <mxCell id="D_2KPJa1WGzG-PhntzP1-4" value="&lt;div&gt;2&lt;/div&gt;&lt;div&gt;key&lt;/div&gt;" style="ellipse;whiteSpace=wrap;html=1;aspect=fixed;" parent="1" vertex="1">
          <mxGeometry x="700" y="-513" width="50" height="50" as="geometry" />
        </mxCell>
        <mxCell id="mxqUm0Fkxh0u8gYya8W_-6" value="" style="edgeStyle=orthogonalEdgeStyle;rounded=0;orthogonalLoop=1;jettySize=auto;html=1;" parent="1" source="mxqUm0Fkxh0u8gYya8W_-1" target="mxqUm0Fkxh0u8gYya8W_-5" edge="1">
          <mxGeometry relative="1" as="geometry" />
        </mxCell>
        <mxCell id="mxqUm0Fkxh0u8gYya8W_-8" value="yes" style="edgeLabel;html=1;align=center;verticalAlign=middle;resizable=0;points=[];" parent="mxqUm0Fkxh0u8gYya8W_-6" vertex="1" connectable="0">
          <mxGeometry x="-0.374" y="-1" relative="1" as="geometry">
            <mxPoint as="offset" />
          </mxGeometry>
        </mxCell>
        <mxCell id="mxqUm0Fkxh0u8gYya8W_-9" value="no" style="edgeStyle=orthogonalEdgeStyle;rounded=0;orthogonalLoop=1;jettySize=auto;html=1;exitX=0.5;exitY=1;exitDx=0;exitDy=0;entryX=0.25;entryY=0;entryDx=0;entryDy=0;" parent="1" source="mxqUm0Fkxh0u8gYya8W_-1" target="OpHPQtOI1xMnlN20b7Oq-1" edge="1">
          <mxGeometry relative="1" as="geometry" />
        </mxCell>
        <mxCell id="mxqUm0Fkxh0u8gYya8W_-1" value="Got the vial?" style="rhombus;whiteSpace=wrap;html=1;rounded=1;arcSize=14;strokeWidth=2;" parent="1" vertex="1">
          <mxGeometry x="350" y="320" width="91" height="80" as="geometry" />
        </mxCell>
        <mxCell id="mxqUm0Fkxh0u8gYya8W_-5" value="-8&lt;div&gt;Successful finish&lt;/div&gt;" style="whiteSpace=wrap;html=1;rounded=1;arcSize=14;strokeWidth=2;" parent="1" vertex="1">
          <mxGeometry x="525" y="330" width="120" height="60" as="geometry" />
        </mxCell>
        <mxCell id="mxqUm0Fkxh0u8gYya8W_-7" value="Make torch" style="shape=parallelogram;perimeter=parallelogramPerimeter;whiteSpace=wrap;html=1;fixedSize=1;" parent="1" vertex="1">
          <mxGeometry x="248.5" y="510" width="120" height="60" as="geometry" />
        </mxCell>
        <mxCell id="HDW13lFz8kkw8iT4QfQf-3" value="&lt;div&gt;3&lt;/div&gt;&lt;div&gt;ork&lt;/div&gt;" style="ellipse;whiteSpace=wrap;html=1;aspect=fixed;" parent="1" vertex="1">
          <mxGeometry x="600.5" y="-505" width="50" height="50" as="geometry" />
        </mxCell>
        <mxCell id="HDW13lFz8kkw8iT4QfQf-5" value="&lt;div&gt;4&lt;/div&gt;&lt;div&gt;door&lt;/div&gt;" style="ellipse;whiteSpace=wrap;html=1;aspect=fixed;" parent="1" vertex="1">
          <mxGeometry x="180" y="-325" width="50" height="50" as="geometry" />
        </mxCell>
        <mxCell id="HDW13lFz8kkw8iT4QfQf-6" value="&lt;div&gt;6&lt;/div&gt;&lt;div&gt;vial&lt;/div&gt;" style="ellipse;whiteSpace=wrap;html=1;aspect=fixed;" parent="1" vertex="1">
          <mxGeometry x="120" y="-55" width="50" height="50" as="geometry" />
        </mxCell>
        <mxCell id="HDW13lFz8kkw8iT4QfQf-7" value="&lt;div&gt;5&lt;/div&gt;&lt;div&gt;wooden chest&lt;/div&gt;" style="ellipse;whiteSpace=wrap;html=1;aspect=fixed;" parent="1" vertex="1">
          <mxGeometry x="70" y="-55" width="50" height="50" as="geometry" />
        </mxCell>
      </root>
    </mxGraphModel>
  </diagram>
</mxfile>
